<svg xmlns="http://www.w3.org/2000/svg" viewBox="0 0 1200 1000" fill="none" aria-hidden="true">
  <defs>
    <radialGradient id="halo" cx="0" cy="0" r="1" gradientUnits="userSpaceOnUse" gradientTransform="translate(760 490) rotate(90) scale(470 520)">
      <stop stop-color="#B08A3E" stop-opacity=".18"/>
      <stop offset="1" stop-color="#B08A3E" stop-opacity="0"/>
    </radialGradient>
    <linearGradient id="bond" x1="185" y1="122" x2="1115" y2="846" gradientUnits="userSpaceOnUse">
      <stop stop-color="#B08A3E" stop-opacity=".05"/>
      <stop offset=".5" stop-color="#B08A3E" stop-opacity=".38"/>
      <stop offset="1" stop-color="#B08A3E" stop-opacity=".07"/>
    </linearGradient>
    <filter id="soft" x="-50%" y="-50%" width="200%" height="200%">
      <feGaussianBlur stdDeviation="9"/>
    </filter>
    <filter id="glow" x="-100%" y="-100%" width="300%" height="300%">
      <feGaussianBlur stdDeviation="4" result="blur"/>
      <feMerge><feMergeNode in="blur"/><feMergeNode in="SourceGraphic"/></feMerge>
    </filter>
  </defs>
  <ellipse cx="760" cy="490" rx="520" ry="470" fill="url(#halo)" filter="url(#soft)"/>
  <g stroke="url(#bond)" stroke-linecap="round">
    <path d="M159 798L349 650L545 712L719 538L914 610L1090 436" stroke-width="2"/>
    <path d="M349 650L400 442L610 354L719 538L875 311L1087 219" stroke-width="1.4"/>
    <path d="M545 712L617 859L823 815L914 610L1057 762" stroke-width="1.6"/>
    <path d="M610 354L765 164L875 311L1033 91" stroke-width="1.2"/>
    <path d="M719 538L823 815L1003 925" stroke-width="1.1"/>
  </g>
  <g fill="#B08A3E" filter="url(#glow)">
    <circle cx="159" cy="798" r="8" fill-opacity=".18"/>
    <circle cx="349" cy="650" r="15" fill-opacity=".35"/>
    <circle cx="400" cy="442" r="7" fill-opacity=".17"/>
    <circle cx="545" cy="712" r="11" fill-opacity=".29"/>
    <circle cx="610" cy="354" r="18" fill-opacity=".34"/>
    <circle cx="617" cy="859" r="7" fill-opacity=".16"/>
    <circle cx="719" cy="538" r="24" fill-opacity=".42"/>
    <circle cx="765" cy="164" r="9" fill-opacity=".2"/>
    <circle cx="823" cy="815" r="15" fill-opacity=".3"/>
    <circle cx="875" cy="311" r="13" fill-opacity=".28"/>
    <circle cx="914" cy="610" r="20" fill-opacity=".37"/>
    <circle cx="1003" cy="925" r="7" fill-opacity=".16"/>
    <circle cx="1033" cy="91" r="10" fill-opacity=".2"/>
    <circle cx="1057" cy="762" r="12" fill-opacity=".24"/>
    <circle cx="1087" cy="219" r="8" fill-opacity=".17"/>
    <circle cx="1090" cy="436" r="15" fill-opacity=".3"/>
  </g>
  <g fill="none" stroke="#B08A3E" stroke-opacity=".22">
    <circle cx="719" cy="538" r="46" stroke-width="1"/>
    <circle cx="914" cy="610" r="37" stroke-width=".8"/>
    <circle cx="610" cy="354" r="34" stroke-width=".8"/>
  </g>
</svg>